<?xml version="1.0" encoding="UTF-8"?>
<!DOCTYPE svg PUBLIC "-//W3C//DTD SVG 1.1//EN" "http://www.w3.org/Graphics/SVG/1.1/DTD/svg11.dtd">
<!-- Creator: CorelDRAW -->
<svg xmlns="http://www.w3.org/2000/svg" xml:space="preserve" width="70.294mm" height="28.6455mm" version="1.1" style="shape-rendering:geometricPrecision; text-rendering:geometricPrecision; image-rendering:optimizeQuality; fill-rule:evenodd; clip-rule:evenodd"
viewBox="0 0 568.03 231.48"
 xmlns:xlink="http://www.w3.org/1999/xlink"
 xmlns:xodm="http://www.corel.com/coreldraw/odm/2003">
 <defs>
  <style type="text/css">
   <![CDATA[
    .str0 {stroke:#005FA6;stroke-width:1.62;stroke-miterlimit:22.9256}
    .fil1 {fill:none}
    .fil3 {fill:url(#id0);fill-rule:nonzero}
    .fil2 {fill:url(#id1);fill-rule:nonzero}
    .fil11 {fill:url(#id2);fill-rule:nonzero}
    .fil10 {fill:url(#id3);fill-rule:nonzero}
    .fil6 {fill:url(#id4);fill-rule:nonzero}
    .fil12 {fill:url(#id5);fill-rule:nonzero}
    .fil8 {fill:url(#id6);fill-rule:nonzero}
    .fil9 {fill:url(#id7);fill-rule:nonzero}
    .fil4 {fill:url(#id8);fill-rule:nonzero}
    .fil0 {fill:url(#id9);fill-rule:nonzero}
    .fil5 {fill:url(#id10);fill-rule:nonzero}
    .fil7 {fill:url(#id11);fill-rule:nonzero}
   ]]>
  </style>
  <linearGradient id="id0" gradientUnits="userSpaceOnUse" x1="508.81" y1="361.44" x2="-212.55" y2="-58.37">
   <stop offset="0" style="stop-opacity:1; stop-color:#00A0E3"/>
   <stop offset="1" style="stop-opacity:1; stop-color:#363785"/>
  </linearGradient>
  <linearGradient id="id1" gradientUnits="userSpaceOnUse" xlink:href="#id0" x1="1155.66" y1="666.57" x2="-608.8" y2="-360.29">
  </linearGradient>
  <linearGradient id="id2" gradientUnits="userSpaceOnUse" xlink:href="#id0" x1="558.65" y1="145.24" x2="-57.63" y2="-213.41">
  </linearGradient>
  <linearGradient id="id3" gradientUnits="userSpaceOnUse" xlink:href="#id0" x1="514.19" y1="147.65" x2="122.73" y2="-80.16">
  </linearGradient>
  <linearGradient id="id4" gradientUnits="userSpaceOnUse" xlink:href="#id0" x1="354.84" y1="179.53" x2="145.32" y2="57.6">
  </linearGradient>
  <linearGradient id="id5" gradientUnits="userSpaceOnUse" x1="548.85" y1="94.09" x2="39.18" y2="51.73">
   <stop offset="0" style="stop-opacity:1; stop-color:#00A0E3"/>
   <stop offset="0.54902" style="stop-opacity:1; stop-color:#1B6CB4"/>
   <stop offset="1" style="stop-opacity:1; stop-color:#363785"/>
  </linearGradient>
  <linearGradient id="id6" gradientUnits="userSpaceOnUse" xlink:href="#id0" x1="528.29" y1="231.49" x2="-139.87" y2="-157.36">
  </linearGradient>
  <linearGradient id="id7" gradientUnits="userSpaceOnUse" xlink:href="#id0" x1="501.26" y1="173.33" x2="53.83" y2="-87.06">
  </linearGradient>
  <linearGradient id="id8" gradientUnits="userSpaceOnUse" xlink:href="#id0" x1="543.02" y1="252.08" x2="-154.39" y2="-153.73">
  </linearGradient>
  <linearGradient id="id9" gradientUnits="userSpaceOnUse" x1="146.61" y1="188.48" x2="-131.38" y2="189.74">
   <stop offset="0" style="stop-opacity:1; stop-color:#005FA6"/>
   <stop offset="1" style="stop-opacity:1; stop-color:#393185"/>
  </linearGradient>
  <linearGradient id="id10" gradientUnits="userSpaceOnUse" xlink:href="#id0" x1="427.27" y1="234.44" x2="-27.08" y2="-29.98">
  </linearGradient>
  <linearGradient id="id11" gradientUnits="userSpaceOnUse" xlink:href="#id0" x1="486.4" y1="245.71" x2="-79.45" y2="-83.59">
  </linearGradient>
 </defs>
 <g id="Слой_x0020_1">
  <metadata id="CorelCorpID_0Corel-Layer"/>
  <g id="_2675581962416">
   <g>
    <path class="fil0" d="M211.48 231.48c-1.23,0 -2.42,-0.17 -3.57,-0.52 -1.15,-0.35 -2.06,-0.81 -2.72,-1.39l1.03 -2.3c0.65,0.52 1.46,0.94 2.41,1.27 0.95,0.33 1.9,0.49 2.86,0.49 1.19,0 2.07,-0.19 2.66,-0.57 0.59,-0.38 0.88,-0.88 0.88,-1.51 0,-0.46 -0.16,-0.83 -0.49,-1.13 -0.33,-0.3 -0.74,-0.53 -1.24,-0.7 -0.5,-0.17 -1.19,-0.36 -2.05,-0.57 -1.22,-0.29 -2.2,-0.58 -2.95,-0.87 -0.75,-0.29 -1.4,-0.74 -1.94,-1.36 -0.54,-0.62 -0.81,-1.45 -0.81,-2.5 0,-0.88 0.24,-1.68 0.72,-2.41 0.48,-0.72 1.2,-1.3 2.17,-1.72 0.97,-0.43 2.15,-0.64 3.55,-0.64 0.97,0 1.93,0.12 2.87,0.37 0.94,0.24 1.76,0.59 2.44,1.05l-0.93 2.3c-0.7,-0.41 -1.43,-0.72 -2.19,-0.94 -0.76,-0.21 -1.5,-0.32 -2.21,-0.32 -1.17,0 -2.04,0.2 -2.61,0.59 -0.57,0.4 -0.85,0.92 -0.85,1.57 0,0.46 0.16,0.83 0.49,1.12 0.33,0.29 0.74,0.52 1.24,0.68 0.5,0.17 1.19,0.36 2.05,0.57 1.19,0.27 2.16,0.56 2.92,0.85 0.76,0.3 1.41,0.75 1.95,1.36 0.54,0.61 0.81,1.43 0.81,2.46 0,0.88 -0.24,1.68 -0.72,2.39 -0.48,0.72 -1.2,1.28 -2.18,1.71 -0.97,0.43 -2.16,0.64 -3.56,0.64zm12.27 -12.41l2.85 0 0 12.18 -2.85 0 0 -12.18zm1.44 -2.01c-0.52,0 -0.95,-0.16 -1.3,-0.49 -0.35,-0.33 -0.53,-0.73 -0.53,-1.22 0,-0.49 0.18,-0.89 0.53,-1.22 0.35,-0.33 0.78,-0.49 1.3,-0.49 0.52,0 0.95,0.16 1.3,0.47 0.35,0.31 0.52,0.7 0.52,1.17 0,0.5 -0.17,0.92 -0.51,1.27 -0.34,0.34 -0.78,0.51 -1.31,0.51zm15.21 1.87c1.54,0 2.77,0.45 3.69,1.35 0.93,0.9 1.39,2.23 1.39,3.99l0 6.98 -2.85 0 0 -6.61c0,-1.06 -0.25,-1.87 -0.75,-2.41 -0.5,-0.54 -1.22,-0.81 -2.14,-0.81 -1.05,0 -1.88,0.32 -2.49,0.95 -0.61,0.63 -0.91,1.54 -0.91,2.72l0 6.16 -2.85 0 0 -12.18 2.71 0 0 1.57c0.47,-0.56 1.06,-0.99 1.78,-1.28 0.71,-0.29 1.52,-0.43 2.42,-0.43zm17.56 12.48c-1.26,0 -2.4,-0.27 -3.4,-0.8 -1,-0.53 -1.79,-1.27 -2.35,-2.22 -0.56,-0.95 -0.84,-2.03 -0.84,-3.23 0,-1.2 0.28,-2.27 0.84,-3.22 0.56,-0.94 1.34,-1.68 2.34,-2.21 1,-0.53 2.13,-0.8 3.41,-0.8 1.2,0 2.25,0.24 3.16,0.73 0.91,0.49 1.59,1.19 2.04,2.1l-2.19 1.28c-0.35,-0.56 -0.79,-0.98 -1.31,-1.27 -0.52,-0.28 -1.1,-0.42 -1.72,-0.42 -1.06,0 -1.95,0.35 -2.64,1.04 -0.7,0.69 -1.05,1.62 -1.05,2.77 0,1.16 0.35,2.08 1.04,2.77 0.69,0.69 1.58,1.04 2.66,1.04 0.62,0 1.2,-0.14 1.72,-0.42 0.52,-0.28 0.96,-0.7 1.31,-1.27l2.19 1.28c-0.47,0.91 -1.16,1.62 -2.06,2.11 -0.9,0.49 -1.95,0.74 -3.14,0.74zm22.08 -6.18c0,0.2 -0.02,0.48 -0.05,0.84l-9.56 0c0.17,0.9 0.6,1.61 1.31,2.13 0.71,0.52 1.58,0.79 2.63,0.79 1.34,0 2.44,-0.44 3.31,-1.32l1.53 1.76c-0.55,0.65 -1.24,1.15 -2.08,1.48 -0.84,0.33 -1.78,0.5 -2.83,0.5 -1.34,0 -2.52,-0.27 -3.53,-0.8 -1.02,-0.53 -1.81,-1.27 -2.36,-2.22 -0.56,-0.95 -0.83,-2.03 -0.83,-3.23 0,-1.19 0.27,-2.25 0.81,-3.2 0.54,-0.95 1.29,-1.69 2.25,-2.22 0.96,-0.53 2.04,-0.8 3.24,-0.8 1.19,0 2.25,0.26 3.18,0.79 0.93,0.52 1.66,1.26 2.19,2.21 0.52,0.95 0.79,2.05 0.79,3.3zm-6.16 -4.01c-0.91,0 -1.68,0.27 -2.32,0.81 -0.63,0.54 -1.01,1.26 -1.15,2.16l6.91 0c-0.12,-0.88 -0.49,-1.6 -1.12,-2.14 -0.62,-0.55 -1.4,-0.82 -2.33,-0.82zm34.44 7.53l0 2.51 -11.77 0 0 -1.98 6.34 -6.02c0.72,-0.68 1.2,-1.28 1.45,-1.79 0.25,-0.51 0.38,-1.01 0.38,-1.52 0,-0.75 -0.25,-1.32 -0.75,-1.71 -0.5,-0.4 -1.24,-0.59 -2.21,-0.59 -1.63,0 -2.87,0.56 -3.74,1.67l-2.08 -1.6c0.62,-0.84 1.46,-1.49 2.52,-1.95 1.06,-0.46 2.24,-0.7 3.55,-0.7 1.73,0 3.12,0.41 4.15,1.23 1.03,0.82 1.55,1.94 1.55,3.35 0,0.87 -0.18,1.68 -0.55,2.44 -0.37,0.76 -1.06,1.63 -2.1,2.6l-4.27 4.06 7.53 0zm11.45 2.74c-1.28,0 -2.42,-0.32 -3.42,-0.97 -1,-0.65 -1.79,-1.59 -2.37,-2.83 -0.58,-1.24 -0.87,-2.71 -0.87,-4.41 0,-1.7 0.29,-3.17 0.87,-4.41 0.58,-1.24 1.37,-2.18 2.37,-2.83 1,-0.65 2.14,-0.97 3.42,-0.97 1.28,0 2.42,0.32 3.43,0.97 1.01,0.65 1.81,1.59 2.38,2.83 0.58,1.24 0.87,2.71 0.87,4.41 0,1.7 -0.29,3.17 -0.87,4.41 -0.58,1.24 -1.37,2.18 -2.38,2.83 -1.01,0.65 -2.16,0.97 -3.43,0.97zm0 -2.58c1.14,0 2.04,-0.47 2.7,-1.41 0.66,-0.94 0.99,-2.35 0.99,-4.22 0,-1.87 -0.33,-3.28 -0.99,-4.22 -0.66,-0.94 -1.56,-1.41 -2.7,-1.41 -1.13,0 -2.02,0.47 -2.68,1.41 -0.66,0.94 -0.99,2.35 -0.99,4.22 0,1.87 0.33,3.28 0.99,4.22 0.66,0.94 1.55,1.41 2.68,1.41zm18.5 2.58c-1.28,0 -2.42,-0.32 -3.42,-0.97 -1,-0.65 -1.79,-1.59 -2.37,-2.83 -0.58,-1.24 -0.87,-2.71 -0.87,-4.41 0,-1.7 0.29,-3.17 0.87,-4.41 0.58,-1.24 1.37,-2.18 2.37,-2.83 1,-0.65 2.14,-0.97 3.42,-0.97 1.28,0 2.42,0.32 3.43,0.97 1.01,0.65 1.81,1.59 2.38,2.83 0.58,1.24 0.87,2.71 0.87,4.41 0,1.7 -0.29,3.17 -0.87,4.41 -0.58,1.24 -1.37,2.18 -2.38,2.83 -1.01,0.65 -2.16,0.97 -3.43,0.97zm0 -2.58c1.14,0 2.04,-0.47 2.7,-1.41 0.66,-0.94 0.99,-2.35 0.99,-4.22 0,-1.87 -0.33,-3.28 -0.99,-4.22 -0.66,-0.94 -1.56,-1.41 -2.7,-1.41 -1.13,0 -2.02,0.47 -2.68,1.41 -0.66,0.94 -0.99,2.35 -0.99,4.22 0,1.87 0.33,3.28 0.99,4.22 0.66,0.94 1.55,1.41 2.68,1.41zm19.09 -7.5c1.05,0 1.99,0.2 2.83,0.6 0.84,0.4 1.49,0.98 1.96,1.72 0.47,0.75 0.71,1.6 0.71,2.58 0,1.03 -0.26,1.94 -0.78,2.72 -0.52,0.78 -1.22,1.39 -2.1,1.81 -0.88,0.43 -1.87,0.64 -2.96,0.64 -2.19,0 -3.89,-0.68 -5.1,-2.05 -1.21,-1.37 -1.81,-3.33 -1.81,-5.88 0,-1.79 0.33,-3.33 0.98,-4.6 0.65,-1.27 1.57,-2.24 2.75,-2.9 1.18,-0.66 2.54,-0.99 4.09,-0.99 0.82,0 1.59,0.09 2.31,0.26 0.72,0.17 1.35,0.43 1.88,0.76l-1.09 2.24c-0.79,-0.52 -1.8,-0.77 -3.03,-0.77 -1.54,0 -2.74,0.47 -3.6,1.41 -0.87,0.94 -1.3,2.3 -1.3,4.08l0 0.02c0.47,-0.55 1.07,-0.96 1.8,-1.24 0.73,-0.28 1.55,-0.42 2.46,-0.42zm-0.5 7.75c0.93,0 1.68,-0.25 2.26,-0.74 0.58,-0.49 0.87,-1.15 0.87,-1.97 0,-0.84 -0.29,-1.5 -0.87,-1.98 -0.58,-0.49 -1.35,-0.73 -2.33,-0.73 -0.96,0 -1.74,0.26 -2.34,0.77 -0.6,0.52 -0.9,1.17 -0.9,1.96 0,0.78 0.29,1.42 0.88,1.93 0.59,0.51 1.39,0.76 2.43,0.76z"/>
    <line class="fil1 str0" x1="397.4" y1="222.56" x2="567.74" y2= "222.56" />
    <line class="fil1 str0" x1="0.29" y1="222.56" x2="170.63" y2= "222.56" />
   </g>
   <g>
    <path class="fil2" d="M167.77 13.2l3.95 1.7 -57.77 124.79 -5.81 21.91 0 1.48 14.77 -19.57c0,0 56.53,-125.77 61.34,-135.69 4.82,-9.92 -1.15,-8.22 -5.12,-6.52 -3.97,1.7 -5.11,2.83 -9.08,6.8 -3.97,3.97 -2.28,5.1 -2.28,5.1zm-28.42 80.47l0 0c-11.14,25.5 -22.29,43.82 -22.29,43.82 0,0 31.35,-68.19 36.83,-80.47 5.48,-12.28 11.71,-23.8 11.71,-23.8 0,0 -15.11,34.94 -26.26,60.44zm40.4 -88.62l0 0c0,0 -1.2,0.69 -3.37,1.78 -2.17,1.09 -4.64,3.77 -4.64,3.77 3.01,-6.13 8.02,-5.55 8.02,-5.55z"/>
    <path class="fil3" d="M146.84 182.89c6.33,0 11.94,0.4 15.01,1.06 1.96,0.42 5.24,1.58 8.41,2.7 3.16,1.12 6.75,2.38 10.25,3.37 3.69,1.04 6.65,1.51 9.57,1.51 1.55,0 3.11,-0.13 4.76,-0.41 3.79,-0.63 10.23,-3.4 10.85,-14.9 0.17,-3.25 0.02,-7.53 -0.5,-13.46 -0.75,-8.71 -1.94,-19.54 -3.17,-30.03 -0.95,-0.3 -1.91,-0.6 -2.87,-0.88l-3.27 -27.27c0.91,0.23 1.83,0.46 2.74,0.7 -0.92,-7.11 -1.55,-11.78 -1.57,-11.92 -1.74,-12.87 -3.05,-19.36 -13.58,-26.1 -5.1,-3.27 -11.22,-5.47 -19.65,-6.9 -1.58,3.5 -3.19,7.06 -4.81,10.65 8.91,1.23 14.34,3.13 18.4,5.73 6.25,4 6.87,6.13 8.5,18.13 0.17,1.27 0.53,3.92 1,7.53 0.53,0.12 1.05,0.24 1.58,0.36 0.7,0.17 1.41,0.34 2.11,0.51l2.81 26.97c-1.03,-0.27 -2.07,-0.54 -3.1,-0.8 1.42,11.84 2.84,24.5 3.68,34.29 0.89,10.25 0.7,16.01 -0.99,16.29 -2.9,0.48 -5.34,0.33 -9.43,-0.83 -6.88,-1.95 -14.45,-5.18 -19.34,-6.24 -9.32,-2.01 -29.99,-1.59 -40.61,0.45 -7.44,1.43 -18.51,5.26 -20.73,6.05 -2.22,-0.78 -13.29,-4.61 -20.73,-6.05 -10.62,-2.05 -31.29,-2.46 -40.61,-0.45 -4.9,1.05 -12.46,4.29 -19.34,6.24 -4.09,1.16 -6.53,1.31 -9.43,0.83 -1.69,-0.28 -1.88,-6.04 -0.99,-16.29 0.85,-9.79 2.26,-22.45 3.68,-34.29 -0.98,0.25 -1.96,0.5 -2.93,0.76l2.81 -26.96c0.65,-0.15 1.29,-0.31 1.94,-0.47 0.53,-0.12 1.05,-0.24 1.58,-0.36 0.47,-3.61 0.82,-6.26 1,-7.53 1.63,-12 2.25,-14.13 8.5,-18.13 6.25,-4 15.79,-6.37 36.29,-7.12 18.69,-0.68 35.44,9.56 38.27,11.37 2.83,-1.81 19.55,-12.05 38.25,-11.37 0.55,0.02 1.09,0.04 1.62,0.06l5.1 -11c-2.01,-0.12 -4.11,-0.22 -6.31,-0.3 -0.73,-0.03 -1.47,-0.04 -2.21,-0.04 -15.14,0 -28.73,5.68 -36.47,9.72 -7.75,-4.03 -21.34,-9.72 -36.47,-9.72 -0.74,0 -1.48,0.01 -2.21,0.04 -21.39,0.78 -33.15,3.27 -41.91,8.89 -10.53,6.74 -11.84,13.23 -13.58,26.1 -0.02,0.14 -0.65,4.81 -1.57,11.92 0.97,-0.26 1.94,-0.5 2.91,-0.75l-3.27 27.26c-1.02,0.3 -2.03,0.61 -3.04,0.93 -1.23,10.49 -2.42,21.32 -3.17,30.03 -0.51,5.93 -0.67,10.2 -0.5,13.46 0.62,11.49 7.06,14.27 10.85,14.9 1.66,0.27 3.21,0.41 4.76,0.41 2.93,0 5.88,-0.47 9.57,-1.51 3.5,-0.99 7.08,-2.26 10.25,-3.37 3.17,-1.12 6.45,-2.27 8.4,-2.7 3.07,-0.66 8.68,-1.06 15.01,-1.06 7.89,0 16.18,0.61 21.1,1.56 4.28,0.82 10.5,2.73 14.98,4.2 1.56,0.51 5.81,2.5 7.84,3.39l0.02 -0c0.02,-0.01 0.04,0 0.06,0 2.03,-0.9 6.28,-2.88 7.84,-3.39 4.48,-1.47 10.7,-3.38 14.98,-4.2 4.93,-0.95 13.21,-1.56 21.11,-1.56z"/>
    <path class="fil4" d="M295.16 101.11c-1.92,0 -3.53,0.64 -4.84,1.91 -1.3,1.27 -1.95,2.9 -1.95,4.88 0,1.99 0.65,3.6 1.95,4.84 1.3,1.24 2.91,1.86 4.84,1.86 1.86,0 3.45,-0.62 4.79,-1.86 1.33,-1.24 2,-2.85 2,-4.84 0,-1.98 -0.67,-3.61 -2,-4.88 -1.33,-1.27 -2.93,-1.91 -4.79,-1.91z"/>
    <path class="fil5" d="M279.67 158.96c-0.59,-0.62 -1.39,-1.01 -2.42,-1.38 -1.02,-0.37 -2.28,-0.45 -3.77,-0.45l-24.93 0 31.76 -44.11 0 -4.65c0,-1.43 -0.51,-2.48 -1.19,-3.07 -0.68,-0.59 -1.99,-0.93 -3.6,-0.93l-34.23 0c-2.79,0 -4.77,0.69 -5.95,1.96 -1.18,1.27 -1.77,2.8 -1.77,4.54 0,0.68 0.03,1.28 0.06,1.78 0.03,0.5 0.16,1.07 0.16,1.69l0 -0.24 30.94 0 -30.94 44.14 0 8.63 47.31 0c0.06,-0.69 0.11,-1.12 0.14,-1.62 0.03,-0.49 0.05,-1.1 0.05,-1.79 0,-0.8 -0.12,-1.6 -0.37,-2.38 -0.25,-0.78 -0.67,-1.48 -1.26,-2.1z"/>
    <path class="fil6" d="M299.16 123.76c-0.81,-0.53 -1.71,-0.88 -2.7,-1.07 -0.99,-0.19 -1.98,-0.28 -2.98,-0.28 -0.99,0 -1.88,0.05 -2.81,0.14 -0.93,0.09 -1.32,0.17 -1.32,0.23l0 37.2c0,3.1 0.68,5.16 2.21,6.19 1.52,1.02 3.45,1.53 5.87,1.53 0.99,0 1.9,-0.03 2.77,-0.09 0.87,-0.06 1.65,-0.16 1.65,-0.28l0 -37.57c0,-1.55 -0.25,-2.8 -0.74,-3.77 -0.5,-0.96 -1.15,-1.7 -1.95,-2.23z"/>
    <path class="fil7" d="M347.24 122.41c-1.43,0 -2.64,0.25 -3.63,0.74 -0.99,0.5 -1.83,1.16 -2.51,2 -0.68,0.84 -1.26,1.81 -1.72,2.93 -0.47,1.12 -0.88,2.33 -1.26,3.63l-6.88 25.02 -8.37 -28.65c-0.56,-1.92 -1.5,-3.35 -2.84,-4.28 -1.33,-0.93 -2.87,-1.39 -4.6,-1.39 -1.12,0 -2.34,0.09 -3.67,0.28 -1.33,0.19 -2.47,0.31 -3.39,0.62l14.32 42.84 5.77 0 -1.58 4.77c-0.87,2.6 -1.92,4.48 -3.16,5.5 -1.24,1.02 -2.82,1.57 -4.74,1.57 -1.24,0 -2.42,-0.17 -3.53,-0.54 -1.12,-0.37 -2.02,-0.8 -2.7,-1.29 -0.81,1.3 -1.44,2.48 -1.91,3.54 -0.46,1.05 -0.7,2.02 -0.7,2.88 0,1.92 0.9,3.29 2.7,4.09 1.8,0.8 4.09,1.21 6.88,1.21 5.02,0 8.97,-1.22 11.86,-3.67 2.88,-2.45 4.94,-5.72 6.19,-9.81l15.44 -50.78c-0.93,-0.37 -1.86,-0.67 -2.79,-0.88 -0.93,-0.22 -1.99,-0.33 -3.16,-0.33z"/>
    <path class="fil8" d="M396.39 128.36c-1.71,-2.11 -3.94,-3.78 -6.7,-5.02 -2.76,-1.24 -6.09,-1.86 -10,-1.86 -3.72,0 -6.98,0.62 -9.77,1.86 -2.79,1.24 -5.1,2.93 -6.93,5.07 -1.83,2.14 -3.21,4.62 -4.14,7.44 -0.93,2.82 -1.39,5.81 -1.39,8.97 0,3.1 0.4,6.06 1.21,8.88 0.8,2.82 2.08,5.3 3.81,7.44 1.74,2.14 3.98,3.84 6.74,5.12 2.76,1.27 6.12,1.91 10.09,1.91 3.97,0 7.35,-0.65 10.14,-1.95 2.79,-1.3 5.07,-3.04 6.84,-5.21 1.77,-2.17 3.04,-4.68 3.81,-7.53 0.77,-2.85 1.16,-5.83 1.16,-8.93 0,-3.1 -0.39,-6.05 -1.16,-8.84 -0.78,-2.79 -2.02,-5.24 -3.72,-7.35zm-8.23 21.39l0 0c-0.25,1.67 -0.71,3.18 -1.4,4.51 -0.68,1.33 -1.63,2.4 -2.84,3.21 -1.21,0.81 -2.74,1.21 -4.6,1.21 -1.8,0 -3.3,-0.4 -4.51,-1.21 -1.21,-0.81 -2.15,-1.87 -2.83,-3.21 -0.68,-1.33 -1.16,-2.84 -1.44,-4.51 -0.28,-1.67 -0.42,-3.35 -0.42,-5.02 0,-1.67 0.15,-3.32 0.46,-4.93 0.31,-1.61 0.82,-3.05 1.53,-4.32 0.71,-1.27 1.68,-2.31 2.88,-3.12 1.21,-0.8 2.71,-1.21 4.51,-1.21 1.8,0 3.29,0.39 4.47,1.16 1.18,0.78 2.11,1.78 2.79,3.02 0.68,1.24 1.15,2.68 1.4,4.32 0.25,1.64 0.37,3.3 0.37,4.98 0,1.74 -0.12,3.44 -0.37,5.12z"/>
    <path class="fil9" d="M458.05 105.39c-0.77,-0.5 -1.64,-0.84 -2.6,-1.02 -0.96,-0.19 -1.88,-0.28 -2.74,-0.28 -0.43,0 -0.87,0.03 -1.3,0.09 -0.43,0.06 -1,0.13 -1.43,0.19l-1.62 0.19 0 42.87 -23.86 -39.15c-0.87,-1.43 -1.79,-2.48 -2.91,-3.16 -1.12,-0.68 -2.63,-1.02 -4.62,-1.02 -1.05,0 -1.97,0.06 -3.03,0.19 -1.06,0.12 -1.68,0.25 -2.38,0.37l0 62.2 11.8 0 0 -41 26.65 41 10.84 0 0 -55.51c0,-1.55 -0.29,-2.8 -0.82,-3.77 -0.53,-0.96 -1.21,-1.69 -1.98,-2.19z"/>
    <path class="fil10" d="M505.9 157.13l-20.06 0 0 -17.36 20.13 0 0 -9.72 -20.13 0 0 -15.97 18.47 0c3.04,0 5.12,-0.38 6.23,-1.46 1.11,-1.09 1.67,-2.63 1.67,-4.8 0,-0.68 -0.02,-1.26 -0.05,-1.73 -0.03,-0.46 -0.11,-1.03 -0.23,-1.73l-38.6 0 0 62.49 40.09 0c0.06,-0.69 0.11,-1.11 0.14,-1.57 0.03,-0.47 0.05,-1.06 0.05,-1.74 0,-1.67 -0.54,-3.09 -1.63,-4.46 -1.09,-1.36 -3.12,-1.95 -6.09,-1.95z"/>
    <path class="fil11" d="M567.75 104.36l-43.71 0c-2.85,0 -4.88,0.75 -6.09,2.14 -1.21,1.4 -1.81,2.96 -1.81,4.63 0,0.68 0.01,1.28 0.04,1.78 0.03,0.5 0.23,1.13 0.23,1.87l0 -0.01 19.44 0 0 52.07 13.19 0 0 -52.07 11.37 0c2.85,0 4.84,-0.61 5.95,-1.95 1.12,-1.33 1.67,-2.83 1.67,-4.44 0,-1.36 -0.09,-2.64 -0.28,-4.02z"/>
    <path class="fil12" d="M236.77 70.27l-4.9 0 0 -2.89 13.35 0 0 2.89 -4.9 0 0 12.43 -3.55 0 0 -12.43zm20.24 9.15l-7.12 0 -1.36 3.28 -3.63 0 6.83 -15.32 3.5 0 6.85 15.32 -3.72 0 -1.36 -3.28zm-1.12 -2.69l-2.43 -5.87 -2.43 5.87 4.86 0zm8.64 -10.44c0.61,0 1.12,0.19 1.51,0.58 0.39,0.39 0.59,0.89 0.59,1.52 0,0.29 -0.04,0.58 -0.11,0.88 -0.07,0.29 -0.23,0.73 -0.46,1.31l-1.27 3.15 -2.17 0 0.94 -3.46c-0.37,-0.16 -0.65,-0.4 -0.85,-0.72 -0.2,-0.32 -0.31,-0.71 -0.31,-1.16 0,-0.63 0.2,-1.13 0.6,-1.52 0.4,-0.39 0.91,-0.58 1.52,-0.58zm5.22 1.09l3.55 0 0 12.43 7.68 0 0 2.89 -11.23 0 0 -15.32zm13.78 0l3.55 0 0 15.32 -3.55 0 0 -15.32zm21.68 15.32l-0.02 -9.19 -4.51 7.57 -1.6 0 -4.49 -7.38 0 9 -3.33 0 0 -15.32 2.93 0 5.74 9.52 5.65 -9.52 2.91 0 0.04 15.32 -3.33 0zm19.79 -15.32c1.36,0 2.54,0.23 3.54,0.68 1,0.45 1.77,1.09 2.31,1.93 0.54,0.83 0.81,1.82 0.81,2.96 0,1.12 -0.27,2.11 -0.81,2.94 -0.54,0.84 -1.31,1.48 -2.31,1.93 -1,0.45 -2.18,0.67 -3.54,0.67l-3.09 0 0 4.23 -3.55 0 0 -15.32 6.63 0zm-0.2 8.21c1.07,0 1.88,-0.23 2.43,-0.69 0.56,-0.46 0.83,-1.11 0.83,-1.96 0,-0.86 -0.28,-1.52 -0.83,-1.98 -0.55,-0.46 -1.36,-0.69 -2.43,-0.69l-2.89 0 0 5.32 2.89 0zm17.57 7.38c-1.59,0 -3.02,-0.34 -4.3,-1.03 -1.28,-0.69 -2.28,-1.63 -3,-2.83 -0.72,-1.2 -1.08,-2.56 -1.08,-4.06 0,-1.5 0.36,-2.86 1.08,-4.06 0.72,-1.2 1.72,-2.15 3,-2.84 1.28,-0.69 2.71,-1.03 4.3,-1.03 1.59,0 3.02,0.34 4.29,1.03 1.27,0.69 2.27,1.63 3,2.84 0.73,1.2 1.09,2.56 1.09,4.06 0,1.5 -0.36,2.86 -1.09,4.06 -0.73,1.2 -1.73,2.15 -3,2.83 -1.27,0.69 -2.7,1.03 -4.29,1.03zm0 -3.02c0.91,0 1.72,-0.21 2.45,-0.62 0.73,-0.42 1.3,-1 1.72,-1.74 0.42,-0.74 0.62,-1.59 0.62,-2.54 0,-0.95 -0.21,-1.79 -0.62,-2.54 -0.42,-0.75 -0.99,-1.32 -1.72,-1.74 -0.73,-0.42 -1.55,-0.62 -2.45,-0.62 -0.9,0 -1.72,0.21 -2.45,0.62 -0.73,0.42 -1.3,1 -1.72,1.74 -0.42,0.74 -0.62,1.59 -0.62,2.54 0,0.95 0.21,1.8 0.62,2.54 0.42,0.74 0.99,1.32 1.72,1.74 0.73,0.42 1.55,0.62 2.45,0.62zm21.38 2.76l-2.96 -4.27 -0.18 0 -3.09 0 0 4.27 -3.55 0 0 -15.32 6.63 0c1.36,0 2.54,0.23 3.54,0.68 1,0.45 1.77,1.09 2.31,1.93 0.54,0.83 0.81,1.82 0.81,2.96 0,1.14 -0.27,2.12 -0.82,2.94 -0.55,0.83 -1.32,1.46 -2.33,1.89l3.44 4.93 -3.81 0zm-0.07 -9.76c0,-0.86 -0.28,-1.52 -0.83,-1.98 -0.55,-0.46 -1.36,-0.69 -2.43,-0.69l-2.89 0 0 5.34 2.89 0c1.07,0 1.88,-0.23 2.43,-0.7 0.56,-0.47 0.83,-1.12 0.83,-1.97zm9.91 -2.67l-4.9 0 0 -2.89 13.35 0 0 2.89 -4.9 0 0 12.43 -3.55 0 0 -12.43zm20.24 9.15l-7.12 0 -1.36 3.28 -3.63 0 6.83 -15.32 3.5 0 6.85 15.32 -3.72 0 -1.36 -3.28zm-1.12 -2.69l-2.43 -5.87 -2.43 5.87 4.86 0zm8.35 -9.35l3.55 0 0 12.43 7.68 0 0 2.89 -11.23 0 0 -15.32zm13.78 0l3.55 0 0 15.32 -3.55 0 0 -15.32z"/>
   </g>
  </g>
 </g>
</svg>
